# xmcd
#
# Track frame offsets:
#	150
#	17766
#	39446
#	68826
#	105644
#	124950
#	132880
#	143397
#	182764
#	215209
#	297830
#
# Disc length: 4258 seconds
#
# Revision: 1
# Processed by: cddbd v1.5.2PL0 Copyright (c) Steve Scherf et al.
# Submitted via: audiograbber 1.83.01
#
DISCID=a210a00b
DTITLE=Grateful Dead - 71-02-19A Capitol Theatre, Port Chester NY
DYEAR=1900
DGENRE=
TTITLE0=Greatest Story Ever Told
TTITLE1=Johnny B Goode
TTITLE2=Bird Song
TTITLE3=Easy Wind
TTITLE4=Deal
TTITLE5=Cryptical Envelopment
TTITLE6=Drums
TTITLE7=The Other One
TTITLE8=Wharf Rat
TTITLE9=Good Lovin'
TTITLE10=Casey Jones
EXTD=
EXTT0=
EXTT1=
EXTT2=
EXTT3=
EXTT4=
EXTT5=
EXTT6=
EXTT7=
EXTT8=
EXTT9=
EXTT10=
PLAYORDER=
